<svg xmlns="http://www.w3.org/2000/svg">
  <symbol id="icon-main" viewBox="0 0 24 24" fill="none" stroke="currentColor" stroke-width="2" stroke-linecap="round" stroke-linejoin="round">
    <rect width="8" height="18" x="3" y="3" rx="1" />
    <path d="M7 3v18" />
    <path d="M20.4 18.9c.2.5-.1 1.1-.6 1.3l-1.9.7c-.5.2-1.1-.1-1.3-.6L11.1 5.1c-.2-.5.1-1.1.6-1.3l1.9-.7c.5-.2 1.1.1 1.3.6Z" />
  </symbol>
  <symbol id="icon-catalog" viewBox="0 0 24 24" fill="none" stroke="currentColor" stroke-width="2" stroke-linecap="round" stroke-linejoin="round">
    <path d="M11 22H5.5a1 1 0 0 1 0-5h4.501" />
    <path d="m21 22-1.879-1.878" />
    <path d="M3 19.5v-15A2.5 2.5 0 0 1 5.5 2H18a1 1 0 0 1 1 1v8" />
    <circle cx="17" cy="18" r="3" />
  </symbol>
  <symbol id="icon-authorised" viewBox="0 0 24 24" fill="none" stroke="currentColor" stroke-width="2" stroke-linecap="round" stroke-linejoin="round">
    <path d="M2 21a8 8 0 0 1 13.292-6" />
    <circle cx="10" cy="8" r="5" />
    <path d="m16 19 2 2 4-4" />
  </symbol>
  <symbol id="icon-unauthorised" viewBox="0 0 24 24" fill="none" stroke="currentColor" stroke-width="2" stroke-linecap="round" stroke-linejoin="round">
    <circle cx="12" cy="8" r="5" />
    <path d="M20 21a8 8 0 0 0-16 0" />
  </symbol>
</svg>
